<svg width="10" height="13" viewBox="0 0 10 13" fill="none" xmlns="http://www.w3.org/2000/svg">
<path d="M9.93603 1.076V10.9787C9.93603 11.3058 9.82847 11.5671 9.61336 11.7627C9.39825 11.9582 9.1467 12.056 8.8587 12.056C8.76447 12.056 8.66936 12.0436 8.57336 12.0187C8.47647 11.9947 8.38092 11.9578 8.2867 11.908L0.497362 6.93067C0.332028 6.81511 0.207585 6.68267 0.12403 6.53333C0.0413637 6.38489 2.95639e-05 6.21644 2.95639e-05 6.028C2.95639e-05 5.83956 0.0413637 5.67111 0.12403 5.52267C0.206697 5.37422 0.33114 5.24178 0.497362 5.12533L8.28803 0.148C8.38136 0.0991106 8.47647 0.0622215 8.57336 0.0373325C8.66936 0.0124435 8.76447 0 8.8587 0C9.14581 0 9.39736 0.0977764 9.61336 0.293332C9.82936 0.488888 9.93692 0.749778 9.93603 1.076Z" fill="black"/>
</svg>
