<svg width="14" height="14" viewBox="0 0 14 14" fill="none" xmlns="http://www.w3.org/2000/svg">
<path d="M4.877 5.123C4.29233 4.53767 4 3.83 4 3C4 2.17 4.29233 1.46233 4.877 0.877001C5.46167 0.291668 6.16933 -0.000665529 7 1.13766e-06C7.83067 0.000667804 8.53833 0.293001 9.123 0.877001C9.70767 1.461 10 2.16867 10 3C10 3.83133 9.70767 4.539 9.123 5.123C8.53833 5.707 7.83067 5.99933 7 6C6.16933 6.00067 5.46167 5.70833 4.877 5.123ZM0 13.231V11.584C0 11.1713 0.12 10.7853 0.36 10.426C0.600667 10.066 0.924 9.78667 1.33 9.588C2.274 9.13533 3.21867 8.796 4.164 8.57C5.10867 8.34333 6.054 8.23 7 8.23C7.946 8.23 8.89167 8.34333 9.837 8.57C10.7823 8.79667 11.7263 9.136 12.669 9.588C13.0757 9.78667 13.399 10.066 13.639 10.426C13.8797 10.7853 14 11.1713 14 11.584V13.23L0 13.231Z" fill="black"/>
</svg>
